<svg width="863" height="189" xmlns="http://www.w3.org/2000/svg" xmlns:xlink="http://www.w3.org/1999/xlink" overflow="hidden"><defs><clipPath id="clip0"><rect x="205" y="225" width="863" height="189"/></clipPath><linearGradient x1="637.5" y1="229" x2="637.5" y2="413" gradientUnits="userSpaceOnUse" spreadMethod="reflect" id="fill1"><stop offset="0" stop-color="#959595"/><stop offset="0.23" stop-color="#D6D6D6"/><stop offset="0.95" stop-color="#FFFFFF" stop-opacity="0.101961"/><stop offset="1" stop-color="#FFFFFF" stop-opacity="0.101961"/></linearGradient></defs><g clip-path="url(#clip0)" transform="translate(-205 -225)"><path d="M0 0 173.666 24.6627" stroke="#04E38A" stroke-width="8" stroke-miterlimit="8" fill="none" fill-rule="evenodd" transform="matrix(-1 0 0 1 786.666 236)"/><path d="M207 232 367.603 283.152" stroke="#04E38A" stroke-width="8" stroke-miterlimit="8" fill="none" fill-rule="evenodd"/><path d="M0 0 101.433 53.8925" stroke="#04E38A" stroke-width="8" stroke-miterlimit="8" fill="none" fill-rule="evenodd" transform="matrix(-1 0 0 1 469.433 229)"/><path d="M469 229 535.854 252.292" stroke="#04E38A" stroke-width="8" stroke-miterlimit="8" fill="none" fill-rule="evenodd"/><path d="M612.843 260.764 536 253" stroke="#04E38A" stroke-width="8" stroke-miterlimit="8" fill="none" fill-rule="evenodd"/><path d="M1060.33 270.254 786 236" stroke="#04E38A" stroke-width="8" stroke-miterlimit="8" fill="none" fill-rule="evenodd"/><path d="M207 231.739 367.669 282.876 469.144 229 536.025 252.285 612.9 260.047 786.637 235.392 1061.08 269.635 1068 413 207 412.543 207 231.739Z" fill="url(#fill1)" fill-rule="evenodd"/></g></svg>