<svg xmlns="http://www.w3.org/2000/svg" viewBox="0 0 218 262.34"><defs><style>.cls-1{fill:#2cb9eb;fill-rule:evenodd;}.cls-2{fill:#0d0518;}</style></defs><g id="图层_2" data-name="图层 2"><g id="图层_2-2" data-name="图层 2"><path class="cls-1" d="M110.82,0a307,307,0,0,1,96.59,15.53l.15.06,3.32,11A211.58,211.58,0,0,1,218,81.26c0,75.81-39.71,141.75-98.22,175.56L109,262.34l-10.78-5.52C39.72,223,0,157.07,0,81.26A211.58,211.58,0,0,1,7.12,26.6L10,17.06l4.23-1.53A307,307,0,0,1,110.82,0Z"/></g><g id="图层_3" data-name="图层 3"><polygon class="cls-2" points="127.82 120.4 107.82 100.4 87.82 80.4 107.82 60.4 127.82 80.4 167.82 80.4 127.82 40.4 107.82 20.4 87.82 40.4 67.82 60.4 47.82 80.4 67.82 100.4 87.82 120.4 107.82 140.4 127.82 160.4 107.82 180.4 87.82 160.4 47.82 160.4 87.82 200.4 107.82 220.4 127.82 200.4 167.82 160.4 147.82 140.4 127.82 120.4"/></g></g></svg>