<svg width="755" height="404" xmlns="http://www.w3.org/2000/svg" xmlns:xlink="http://www.w3.org/1999/xlink" overflow="hidden"><defs><filter id="fx0" x="-10%" y="-10%" width="120%" height="120%" filterUnits="userSpaceOnUse" primitiveUnits="userSpaceOnUse"><feComponentTransfer color-interpolation-filters="sRGB"><feFuncR type="discrete" tableValues="0 0"/><feFuncG type="discrete" tableValues="0 0"/><feFuncB type="discrete" tableValues="0 0"/><feFuncA type="linear" slope="0.4" intercept="0"/></feComponentTransfer><feGaussianBlur stdDeviation="2.66485 2.66485"/></filter><clipPath id="clip1"><rect x="188" y="133" width="755" height="404"/></clipPath><clipPath id="clip2"><rect x="109" y="106" width="511" height="150"/></clipPath><clipPath id="clip3"><rect x="0" y="0" width="733" height="405"/></clipPath><clipPath id="clip4"><rect x="188" y="245" width="133" height="160"/></clipPath><clipPath id="clip5"><rect x="188" y="245" width="133" height="160"/></clipPath><clipPath id="clip6"><rect x="188" y="245" width="133" height="160"/></clipPath></defs><g clip-path="url(#clip1)" transform="translate(-188 -133)"><g clip-path="url(#clip2)" filter="url(#fx0)" transform="translate(210 132)"><g clip-path="url(#clip3)"><path d="M130.992-121.828 130.992-118.504C126.56-117.785 122.607-115.419 119.133-111.406 116.617-108.411 112.874-101.374 107.902-90.293L65.9453 2.78516 62.9805 2.78516 21.2031-94.0664C16.1719-105.746 12.8027-112.604 11.0957-114.641 9.38867-116.677 6.16927-117.965 1.4375-118.504L1.4375-121.828 59.8359-121.828 59.8359-118.504 57.8594-118.504C52.5885-118.504 48.9948-117.845 47.0781-116.527 45.7005-115.629 45.0117-114.311 45.0117-112.574 45.0117-111.496 45.2513-110.223 45.7305-108.756 46.2096-107.288 47.8268-103.35 50.582-96.9414L76.5469-36.2969 100.625-90.293C103.5-96.8216 105.267-101.194 105.926-103.41 106.585-105.626 106.914-107.513 106.914-109.07 106.914-110.867 106.435-112.454 105.477-113.832 104.518-115.21 103.111-116.258 101.254-116.977 98.6784-117.995 95.2643-118.504 91.0117-118.504L91.0117-121.828ZM152.421-124.703C156.314-124.703 159.608-123.34 162.304-120.615 164.999-117.89 166.346-114.611 166.347-110.777 166.346-106.944 164.984-103.68 162.259-100.984 159.533-98.2891 156.254-96.9414 152.421-96.9414 148.587-96.9414 145.323-98.2891 142.628-100.984 139.932-103.68 138.585-106.944 138.585-110.777 138.585-114.611 139.932-117.89 142.628-120.615 145.323-123.34 148.587-124.703 152.421-124.703ZM164.999-84.0039 164.999-17.4297C164.999-11.5 165.688-7.71159 167.065-6.06445 168.443-4.41732 171.138-3.47396 175.151-3.23438L175.151 0 129.78 0 129.78-3.23438C133.494-3.35417 136.249-4.43229 138.046-6.46875 139.244-7.84635 139.843-11.5 139.843-17.4297L139.843-66.4844C139.843-72.4141 139.154-76.2025 137.776-77.8496 136.399-79.4967 133.733-80.4401 129.78-80.6797L129.78-84.0039ZM236.47-86.3398 237.818-57.6797 234.763-57.6797C231.11-66.1849 227.321-71.9948 223.398-75.1094 219.475-78.224 215.567-79.7812 211.673-79.7812 209.218-79.7812 207.121-78.9577 205.384-77.3105 203.647-75.6634 202.779-73.7617 202.779-71.6055 202.779-69.9883 203.378-68.431 204.576-66.9336 206.492-64.4779 211.853-60.2702 220.658-54.3105 229.462-48.3509 235.257-43.2897 238.042-39.127 240.828-34.9642 242.22-30.3073 242.22-25.1562 242.22-20.4844 241.052-15.9023 238.716-11.4102 236.38-6.91797 233.086-3.47396 228.833-1.07812 224.581 1.31771 219.879 2.51562 214.728 2.51562 210.715 2.51562 205.354 1.25781 198.646-1.25781 196.849-1.91667 195.621-2.24609 194.962-2.24609 192.986-2.24609 191.339-0.748698 190.021 2.24609L187.056 2.24609 185.619-27.9414 188.673-27.9414C191.369-20.0352 195.067-14.1055 199.769-10.1523 204.471-6.19922 208.918-4.22266 213.111-4.22266 215.986-4.22266 218.337-5.10612 220.164-6.87305 221.99-8.63997 222.904-10.7812 222.904-13.2969 222.904-16.1719 222.005-18.6576 220.208-20.7539 218.412-22.8503 214.399-26.0247 208.169-30.2773 199.005-36.6263 193.076-41.4779 190.38-44.832 186.427-49.7435 184.451-55.1641 184.451-61.0938 184.451-67.5625 186.682-73.4173 191.144-78.6582 195.606-83.8991 202.06-86.5195 210.505-86.5195 215.057-86.5195 219.46-85.4115 223.712-83.1953 225.33-82.2969 226.647-81.8477 227.666-81.8477 228.744-81.8477 229.612-82.0723 230.271-82.5215 230.93-82.9707 231.978-84.2435 233.416-86.3398ZM275.254-124.703C279.147-124.703 282.442-123.34 285.137-120.615 287.832-117.89 289.18-114.611 289.18-110.777 289.18-106.944 287.817-103.68 285.092-100.984 282.367-98.2891 279.087-96.9414 275.254-96.9414 271.421-96.9414 268.156-98.2891 265.461-100.984 262.766-103.68 261.418-106.944 261.418-110.777 261.418-114.611 262.766-117.89 265.461-120.615 268.156-123.34 271.421-124.703 275.254-124.703ZM287.832-84.0039 287.832-17.4297C287.832-11.5 288.521-7.71159 289.899-6.06445 291.276-4.41732 293.972-3.47396 297.985-3.23438L297.985 0 252.613 0 252.613-3.23438C256.327-3.35417 259.082-4.43229 260.879-6.46875 262.077-7.84635 262.676-11.5 262.676-17.4297L262.676-66.4844C262.676-72.4141 261.987-76.2025 260.61-77.8496 259.232-79.4967 256.567-80.4401 252.613-80.6797L252.613-84.0039ZM345.827-86.5195C353.134-86.5195 359.932-84.6328 366.222-80.8594 372.511-77.0859 377.287-71.7253 380.552-64.7773 383.816-57.8294 385.448-50.2227 385.448-41.957 385.448-30.0378 382.423-20.0651 376.374-12.0391 369.067-2.33594 358.974 2.51562 346.097 2.51562 333.458 2.51562 323.725-1.91667 316.897-10.7812 310.069-19.6458 306.655-29.918 306.655-41.5977 306.655-53.6367 310.144-64.1335 317.122-73.0879 324.1-82.0423 333.668-86.5195 345.827-86.5195ZM346.186-80.1406C343.132-80.1406 340.511-78.9876 338.325-76.6816 336.139-74.3756 334.701-69.8236 334.013-63.0254 333.324-56.2272 332.979-46.7786 332.979-34.6797 332.979-28.2708 333.399-22.2812 334.237-16.7109 334.896-12.4583 336.304-9.22396 338.46-7.00781 340.616-4.79167 343.072-3.68359 345.827-3.68359 348.522-3.68359 350.768-4.43229 352.565-5.92969 354.901-7.96615 356.458-10.8112 357.237-14.4648 358.435-20.1549 359.034-31.6549 359.034-48.9648 359.034-59.1471 358.465-66.14 357.327-69.9434 356.189-73.7467 354.512-76.5169 352.296-78.2539 350.738-79.5117 348.702-80.1406 346.186-80.1406ZM432.526-84.0039 432.526-73.1328C436.839-77.8047 440.972-81.2038 444.925-83.3301 448.878-85.4564 453.13-86.5195 457.682-86.5195 463.133-86.5195 467.655-85.0072 471.249-81.9824 474.843-78.9577 477.238-75.1992 478.436-70.707 479.395-67.293 479.874-60.7344 479.874-51.0312L479.874-18.3281C479.874-11.8594 480.458-7.83138 481.626-6.24414 482.794-4.6569 485.235-3.65365 488.948-3.23438L488.948 0 446.452 0 446.452-3.23438C449.626-3.65365 451.902-4.97135 453.28-7.1875 454.238-8.6849 454.718-12.3984 454.718-18.3281L454.718-55.7031C454.718-62.5911 454.448-66.9336 453.909-68.7305 453.37-70.5273 452.457-71.9199 451.169-72.9082 449.881-73.8965 448.458-74.3906 446.901-74.3906 441.75-74.3906 436.958-70.707 432.526-63.3398L432.526-18.3281C432.526-12.0391 433.11-8.05599 434.278-6.37891 435.446-4.70182 437.617-3.65365 440.792-3.23438L440.792 0 398.296 0 398.296-3.23438C401.83-3.59375 404.345-4.73177 405.843-6.64844 406.861-7.96615 407.37-11.8594 407.37-18.3281L407.37-65.7656C407.37-72.1146 406.786-76.0677 405.618-77.625 404.45-79.1823 402.009-80.2005 398.296-80.6797L398.296-84.0039Z" fill="#18C4FC" transform="translate(119.111 243)"/></g></g><text fill="#18C4FC" font-family="Times New Roman,Times New Roman_MSFontService,sans-serif" font-weight="700" font-size="184" transform="translate(329.111 381)">Vision</text><g clip-path="url(#clip4)"><g clip-path="url(#clip5)"><g clip-path="url(#clip6)"><path d="M67.5227 0C87.5199-0.0119332 107.39 3.18277 126.375 9.46245L126.467 9.499 128.489 16.2013C131.382 27.0681 132.841 38.2666 132.828 49.5118 132.828 95.7029 108.632 135.88 72.9821 156.481L66.4138 159.844 59.8455 156.481C24.2014 135.874 0 95.7029 0 49.5118-0.0124014 38.2687 1.44605 27.0722 4.33822 16.2074L6.09301 10.3947 8.67035 9.46245C27.6559 3.18277 47.5256-0.0119334 67.5227-1.62701e-07Z" fill="#2CB9EB" fill-rule="evenodd" transform="matrix(1 0 0 1.00098 188.086 245)"/><path d="M77.8809 73.3598 65.6948 61.1738 53.5088 48.9878 65.6948 36.8018 77.8809 48.9878 102.253 48.9878 77.8809 24.6158 65.6948 12.4297 53.5088 24.6158 41.3228 36.8018 29.1368 48.9878 41.3228 61.1738 53.5088 73.3598 65.6948 85.5459 77.8809 97.7319 65.6948 109.918 53.5088 97.7319 29.1368 97.7319 53.5088 122.104 65.6948 134.29 77.8809 122.104 102.253 97.7319 90.0669 85.5459 77.8809 73.3598Z" fill="#0D0518" transform="matrix(1 0 0 1.00098 188.086 245)"/></g></g></g></g></svg>